o Cone_Cone.002
v 0.000000 -0.500000 -1.000000
v 1.000000 -0.500000 0.000000
v -0.000000 -0.500000 1.000000
v -1.000000 -0.500000 -0.000000
v 0.000000 0.500000 0.000000
vt 0.000000 0.000000
vt 1.000000 0.000000
vt 1.000000 1.000000
vt 0.000000 0.000000
vt 1.000000 1.000000
vt 1.000000 0.000000
vt 0.000000 1.000000
vt 0.000000 0.000000
vt 1.000000 1.000000
vt 0.000000 0.000000
vt 1.000000 1.000000
vn 0.5774 0.5774 -0.5774
vn 0.5774 0.5774 0.5774
vn 0.0000 -1.0000 -0.0000
vn -0.5774 0.5774 0.5774
vn -0.5774 0.5774 -0.5774
s off
f 1/1/1 5/2/1 2/3/1
f 2/4/2 5/2/2 3/5/2
f 1/1/3 2/6/3 3/5/3 4/7/3
f 3/8/4 5/2/4 4/9/4
f 4/10/5 5/2/5 1/11/5
