# Utah Teapot Model
# Version: 1975 - Martin Newell
# Triangle Mesh Resolution: 3 (492 faces)
o Utah Teapot

v -1.5 2.8 0
v -1.525926 2.722222 -0.2
v -1.574074 2.577778 -0.2
v -1.6 2.5 0
v -2.333333 2.777777 0
v -2.297805 2.70288 -0.2
v -2.231824 2.563786 -0.2
v -2.196296 2.488889 0
v -2.833333 2.622222 0
v -2.765157 2.567489 -0.2
v -2.638546 2.465844 -0.2
v -2.57037 2.411111 0
v -3 2.2 0
v -2.922222 2.2 -0.2
v -2.777778 2.2 -0.2
v -2.7 2.2 0
v -1.525926 2.722222 0.2
v -1.574074 2.577778 0.2
v -2.297805 2.70288 0.2
v -2.231824 2.563786 0.2
v -2.765157 2.567489 0.2
v -2.638546 2.465844 0.2
v -2.922222 2.2 0.2
v -2.777778 2.2 0.2
v -2.881481 1.618518 0
v -2.816186 1.67133 -0.2
v -2.694924 1.76941 -0.2
v -2.629629 1.822222 0
v -2.518518 1.081481 0
v -2.488751 1.158299 -0.2
v -2.43347 1.30096 -0.2
v -2.403704 1.377778 0
v -1.9 0.6 0
v -1.925926 0.7037036 -0.2
v -1.974074 0.8962964 -0.2
v -2 1 0
v -2.816186 1.67133 0.2
v -2.694924 1.76941 0.2
v -2.488751 1.158299 0.2
v -2.43347 1.30096 0.2
v -1.925926 0.7037036 0.2
v -1.974074 0.8962964 0.2
v 2.8 3 0
v 2.903703 3 -0.1
v 3.096296 3 -0.1
v 3.2 3 0
v 2.84074 3.066666 0
v 2.982373 3.073868 -0.1172839
v 3.245404 3.087242 -0.1172839
v 3.387037 3.094444 0
v 2.792593 3.066666 0
v 2.95775 3.072428 -0.1493827
v 3.264472 3.083127 -0.1493827
v 3.42963 3.088889 0
v 2.7 3 0
v 2.855555 3 -0.1666667
v 3.144444 3 -0.1666667
v 3.3 3 0
v 2.903703 3 0.1
v 3.096296 3 0.1
v 2.982373 3.073868 0.1172839
v 3.245404 3.087242 0.1172839
v 2.95775 3.072428 0.1493827
v 3.264472 3.083127 0.1493827
v 2.855555 3 0.1666667
v 3.144444 3 0.1666667
v 2.462963 2.485185 0
v 2.549382 2.417009 -0.2375308
v 2.709877 2.290397 -0.2375308
v 2.796296 2.222222 0
v 2.27037 1.948148 0
v 2.339506 1.765706 -0.3691358
v 2.467901 1.426886 -0.3691358
v 2.537037 1.244444 0
v 1.7 1.7 0
v 1.7 1.414814 -0.44
v 1.7 0.8851851 -0.44
v 1.7 0.6 0
v 2.549382 2.417009 0.2375308
v 2.709877 2.290397 0.2375308
v 2.339506 1.765706 0.3691358
v 2.467901 1.426886 0.3691358
v 1.7 1.414814 0.44
v 1.7 0.8851851 0.44
v 0 4 0
v -0.3629629 3.888888 0
v -0.3142276 3.888888 -0.184834
v -0.184834 3.888888 -0.3142277
v 0 3.888888 -0.3629629
v -0.237037 3.644444 0
v -0.2051797 3.644444 -0.1206475
v -0.1206474 3.644444 -0.2051797
v 0 3.644444 -0.237037
v -0.2 3.4 0
v -0.173037 3.4 -0.1016296
v -0.1016296 3.4 -0.173037
v 0 3.4 -0.2
v 0.184834 3.888888 -0.3142276
v 0.3142277 3.888888 -0.184834
v 0.3629629 3.888888 0
v 0.1206475 3.644444 -0.2051797
v 0.2051797 3.644444 -0.1206474
v 0.237037 3.644444 0
v 0.1016296 3.4 -0.173037
v 0.173037 3.4 -0.1016296
v 0.2 3.4 0
v 0 3.888888 0.3629629
v 0.184834 3.888888 0.3142276
v 0.3142277 3.888888 0.184834
v 0 3.644444 0.237037
v 0.1206475 3.644444 0.2051797
v 0.2051797 3.644444 0.1206474
v 0 3.4 0.2
v 0.1016296 3.4 0.173037
v 0.173037 3.4 0.1016296
v -0.3142276 3.888888 0.184834
v -0.184834 3.888888 0.3142277
v -0.2051797 3.644444 0.1206475
v -0.1206474 3.644444 0.2051797
v -0.173037 3.4 0.1016296
v -0.1016296 3.4 0.173037
v -0.574074 3.251852 0
v -0.4966803 3.251852 -0.2917147
v -0.2917146 3.251852 -0.4966803
v 0 3.251852 -0.574074
v -1.059259 3.148148 0
v -0.9164553 3.148148 -0.5382606
v -0.5382606 3.148148 -0.9164554
v 0 3.148148 -1.059259
v -1.3 3 0
v -1.12474 3 -0.6605926
v -0.6605925 3 -1.124741
v 0 3 -1.3
v 0.2917147 3.251852 -0.4966803
v 0.4966803 3.251852 -0.2917146
v 0.574074 3.251852 0
v 0.5382606 3.148148 -0.9164553
v 0.9164554 3.148148 -0.5382606
v 1.059259 3.148148 0
v 0.6605926 3 -1.12474
v 1.124741 3 -0.6605925
v 1.3 3 0
v 0 3.251852 0.574074
v 0.2917147 3.251852 0.4966803
v 0.4966803 3.251852 0.2917146
v 0 3.148148 1.059259
v 0.5382606 3.148148 0.9164553
v 0.9164554 3.148148 0.5382606
v 0 3 1.3
v 0.6605926 3 1.12474
v 1.124741 3 0.6605925
v -0.4966803 3.251852 0.2917147
v -0.2917146 3.251852 0.4966803
v -0.9164553 3.148148 0.5382606
v -0.5382606 3.148148 0.9164554
v -1.12474 3 0.6605926
v -0.6605925 3 1.124741
v -1.4 3 0
v -1.211259 3 -0.7114074
v -0.7114074 3 -1.211259
v 0 3 -1.4
v -1.384259 3.116666 0
v -1.19764 3.116666 -0.7034087
v -0.7034087 3.116666 -1.19764
v 0 3.116666 -1.384259
v -1.432407 3.116667 0
v -1.239297 3.116666 -0.7278751
v -0.7278751 3.116667 -1.239298
v 0 3.116667 -1.432407
v -1.5 3 0
v -1.297778 3 -0.7622222
v -0.7622222 3 -1.297778
v 0 3 -1.5
v 0.7114074 3 -1.211259
v 1.211259 3 -0.7114074
v 1.4 3 0
v 0.7034087 3.116666 -1.19764
v 1.19764 3.116666 -0.7034087
v 1.384259 3.116666 0
v 0.7278751 3.116666 -1.239297
v 1.239298 3.116667 -0.7278751
v 1.432407 3.116667 0
v 0.7622222 3 -1.297778
v 1.297778 3 -0.7622222
v 1.5 3 0
v 0 3 1.4
v 0.7114074 3 1.211259
v 1.211259 3 0.7114074
v 0 3.116666 1.384259
v 0.7034087 3.116666 1.19764
v 1.19764 3.116666 0.7034087
v 0 3.116667 1.432407
v 0.7278751 3.116666 1.239297
v 1.239298 3.116667 0.7278751
v 0 3 1.5
v 0.7622222 3 1.297778
v 1.297778 3 0.7622222
v -1.211259 3 0.7114074
v -0.7114074 3 1.211259
v -1.19764 3.116666 0.7034087
v -0.7034087 3.116666 1.19764
v -1.239297 3.116666 0.7278751
v -0.7278751 3.116667 1.239298
v -1.297778 3 0.7622222
v -0.7622222 3 1.297778
v -1.740741 2.303704 0
v -1.506063 2.303703 -0.8845539
v -0.884554 2.303704 -1.506063
v 0 2.303704 -1.740741
v -1.925926 1.629629 0
v -1.666283 1.629629 -0.9786556
v -0.9786556 1.629629 -1.666283
v 0 1.629629 -1.925926
v -2 1 0
v -1.73037 0.9999999 -1.016296
v -1.016296 1 -1.730371
v 0 1 -2
v 0.8845539 2.303703 -1.506063
v 1.506063 2.303704 -0.884554
v 1.740741 2.303704 0
v 0.9786556 1.629629 -1.666283
v 1.666283 1.629629 -0.9786556
v 1.925926 1.629629 0
v 1.016296 0.9999999 -1.73037
v 1.730371 1 -1.016296
v 2 1 0
v 0 2.303704 1.740741
v 0.8845539 2.303703 1.506063
v 1.506063 2.303704 0.884554
v 0 1.629629 1.925926
v 0.9786556 1.629629 1.666283
v 1.666283 1.629629 0.9786556
v 0 1 2
v 1.016296 0.9999999 1.73037
v 1.730371 1 1.016296
v -1.506063 2.303703 0.8845539
v -0.884554 2.303704 1.506063
v -1.666283 1.629629 0.9786556
v -0.9786556 1.629629 1.666283
v -1.73037 0.9999999 1.016296
v -1.016296 1 1.730371
v -1.87037 0.4962963 0
v -1.618216 0.4962962 -0.950425
v -0.950425 0.4962964 -1.618217
v 0 0.4962963 -1.87037
v -1.62963 0.1703704 0
v -1.409931 0.1703703 -0.8280932
v -0.8280932 0.1703704 -1.409931
v 0 0.1703704 -1.62963
v -1.5 0 0
v -1.297778 -2.980232e-8 -0.7622222
v -0.7622222 -1.490116e-8 -1.297778
v 0 0 -1.5
v 0.950425 0.4962962 -1.618216
v 1.618217 0.4962964 -0.950425
v 1.87037 0.4962963 0
v 0.8280932 0.1703703 -1.409931
v 1.409931 0.1703704 -0.8280932
v 1.62963 0.1703704 0
v 0.7622222 -2.980232e-8 -1.297778
v 1.297778 -1.490116e-8 -0.7622222
v 1.5 0 0
v 0 0.4962963 1.87037
v 0.950425 0.4962962 1.618216
v 1.618217 0.4962964 0.950425
v 0 0.1703704 1.62963
v 0.8280932 0.1703703 1.409931
v 1.409931 0.1703704 0.8280932
v 0 0 1.5
v 0.7622222 -2.980232e-8 1.297778
v 1.297778 -1.490116e-8 0.7622222
v -1.618216 0.4962962 0.950425
v -0.950425 0.4962964 1.618217
v -1.409931 0.1703703 0.8280932
v -0.8280932 0.1703704 1.409931
v -1.297778 -2.980232e-8 0.7622222
v -0.7622222 -1.490116e-8 1.297778

vn 0 1 0
vn 0 0.6 -0.8
vn 0 -0.6000002 -0.7999999
vn 0 -1 0
vn -0.09950372 0.9950371 0
vn -0.05581048 0.5968953 -0.8003756
vn 0.04706077 -0.5997946 -0.7987689
vn 0.06802389 -0.9976837 0
vn -0.6246951 0.7808688 0
vn -0.3380912 0.4561834 -0.8231593
vn 0.3009899 -0.494273 -0.8155361
vn 0.4625659 -0.8865848 0
vn -1 0 0
vn -0.6 0 -0.8
vn 0.6000001 0 -0.7999998
vn 1 0 0
vn 0 0.6 0.8
vn 0 -0.6000002 0.7999999
vn -0.05581048 0.5968953 0.8003756
vn 0.04706077 -0.5997946 0.7987689
vn -0.3380912 0.4561834 0.8231593
vn 0.3009899 -0.494273 0.8155361
vn -0.6 0 0.8
vn 0.6000001 0 0.7999998
vn -0.9200848 -0.3917193 0
vn -0.5442483 -0.221008 -0.8092893
vn 0.5567952 0.2016448 -0.8058029
vn 0.9486833 0.3162278 0
vn -0.7226418 -0.6912227 0
vn -0.4614267 -0.4161735 -0.7835081
vn 0.4990485 0.3930799 -0.7722945
vn 0.8123237 0.5832069 0
vn -0.5144956 -0.857493 0
vn -0.3143361 -0.5238937 -0.7916617
vn 0.3143362 0.5238937 -0.7916616
vn 0.5144957 0.8574929 0
vn -0.5442483 -0.221008 0.8092893
vn 0.5567952 0.2016448 0.8058029
vn -0.4614267 -0.4161735 0.7835081
vn 0.4990485 0.3930799 0.7722945
vn -0.3143361 -0.5238937 0.7916617
vn 0.3143362 0.5238937 0.7916616
vn 0.7071059 -0.7071076 0
vn 0.2568863 -0.3158443 0.9133739
vn -0.249881 0.3849519 0.8884658
vn -0.5144954 0.8574931 0
vn 0.9486833 0.316228 0
vn 0.1660121 0.5671077 0.8067396
vn -0.1771811 0.8067119 0.5637577
vn -0.3293721 0.9442002 0
vn -0.3939189 0.9191452 0
vn -0.1822544 0.7891729 -0.5865062
vn 0.2280372 0.345889 -0.9101427
vn 0.7893516 -0.6139414 0
vn -0.7071068 0.7071068 0
vn -0.2796589 0.3477496 -0.8949084
vn 0.2684081 -0.4361637 -0.8589053
vn 0.4856427 -0.8741574 0
vn 0.2568863 -0.3158443 -0.9133739
vn -0.249881 0.3849519 -0.8884658
vn 0.1660121 0.5671077 -0.8067396
vn -0.1771811 0.8067119 -0.5637577
vn -0.1822544 0.7891729 0.5865062
vn 0.2280372 0.345889 0.9101427
vn -0.2796589 0.3477496 0.8949084
vn 0.2684081 -0.4361637 0.8589053
vn -0.9701425 0.2425357 0
vn -0.4651289 0.2678233 -0.843757
vn 0.6050074 -0.04112581 -0.7951571
vn 0.9694834 -0.2451567 0
vn -0.8192319 0.5734623 0
vn -0.329937 0.3839083 -0.8624129
vn 0.6371166 -0.1981352 -0.7448657
vn 0.9095958 -0.4154944 0
vn 0 1 0
vn -0.03098394 0.4101677 -0.9114836
vn 0.07159974 -0.4093116 -0.909581
vn 0.2095291 -0.9778025 0
vn -0.4651289 0.2678233 0.843757
vn 0.6050074 -0.04112581 0.7951571
vn -0.329937 0.3839083 0.8624129
vn 0.6371166 -0.1981352 0.7448657
vn -0.03098394 0.4101677 0.9114836
vn 0.07159974 -0.4093116 0.909581
vn 0 1 0
vn -0.9938837 0.1104314 0
vn -0.860396 0.1107969 -0.4974363
vn -0.4974363 0.1107969 -0.860396
vn 0 0.1104314 -0.9938837
vn -0.8320503 -0.5547002 0
vn -0.7191167 -0.5565813 -0.416039
vn -0.416039 -0.5565812 -0.7191168
vn 0 -0.5547002 -0.8320503
vn -0.7071068 0.7071067 0
vn -0.6106426 0.7082918 -0.3541728
vn -0.3541725 0.7082922 -0.6106423
vn 0 0.7071067 -0.7071068
vn 0.4974363 0.1107969 -0.860396
vn 0.860396 0.1107969 -0.4974363
vn 0.9938837 0.1104314 0
vn 0.416039 -0.5565813 -0.7191167
vn 0.7191168 -0.5565812 -0.416039
vn 0.8320503 -0.5547002 0
vn 0.3541728 0.7082918 -0.6106426
vn 0.6106423 0.7082922 -0.3541725
vn 0.7071068 0.7071067 0
vn 0 0.1104314 0.9938837
vn 0.4974363 0.1107969 0.860396
vn 0.860396 0.1107969 0.4974363
vn 0 -0.5547002 0.8320503
vn 0.416039 -0.5565813 0.7191167
vn 0.7191168 -0.5565812 0.416039
vn 0 0.7071067 0.7071068
vn 0.3541728 0.7082918 0.6106426
vn 0.6106423 0.7082922 0.3541725
vn -0.860396 0.1107969 0.4974363
vn -0.4974363 0.1107969 0.860396
vn -0.7191167 -0.5565813 0.416039
vn -0.416039 -0.5565812 0.7191168
vn -0.6106426 0.7082918 0.3541728
vn -0.3541725 0.7082922 0.6106423
vn -0.2216209 0.9751329 0
vn -0.1910986 0.975293 -0.1108372
vn -0.1108373 0.9752929 -0.1910988
vn 0 0.9751329 -0.2216209
vn -0.2544933 0.9670745 0
vn -0.2194555 0.9672838 -0.1272842
vn -0.1272841 0.967284 -0.2194554
vn 0 0.9670745 -0.2544933
vn -1 0 0
vn -0.8650312 0 -0.5017181
vn -0.5017181 0 -0.8650312
vn 0 0 -1
vn 0.1108372 0.975293 -0.1910986
vn 0.1910988 0.9752929 -0.1108373
vn 0.2216209 0.9751329 0
vn 0.1272842 0.9672838 -0.2194555
vn 0.2194554 0.967284 -0.1272841
vn 0.2544933 0.9670745 0
vn 0.5017181 0 -0.8650312
vn 0.8650312 0 -0.5017181
vn 1 0 0
vn 0 0.9751329 0.2216209
vn 0.1108372 0.975293 0.1910986
vn 0.1910988 0.9752929 0.1108373
vn 0 0.9670745 0.2544933
vn 0.1272842 0.9672838 0.2194555
vn 0.2194554 0.967284 0.1272841
vn 0 0 1
vn 0.5017181 0 0.8650312
vn 0.8650312 0 0.5017181
vn -0.1910986 0.975293 0.1108372
vn -0.1108373 0.9752929 0.1910988
vn -0.2194555 0.9672838 0.1272842
vn -0.1272841 0.967284 0.2194554
vn -0.8650312 0 0.5017181
vn -0.5017181 0 0.8650312
vn 0.9417419 -0.3363365 0
vn 0.8143261 -0.3373382 0.4723092
vn 0.4723091 -0.3373383 0.814326
vn 0 -0.3363365 0.9417419
vn 0.9269467 0.3751931 0
vn 0.8014584 0.3762747 0.4648459
vn 0.4648458 0.3762751 0.8014583
vn 0 0.3751931 0.9269467
vn -0.6663308 0.7456563 0
vn -0.5753215 0.7467654 -0.3336865
vn -0.3336866 0.7467652 -0.5753217
vn 0 0.7456563 -0.6663308
vn -0.9417419 0.3363365 0
vn -0.814326 0.3373383 -0.4723091
vn -0.4723093 0.3373373 -0.8143263
vn 0 0.3363365 -0.9417419
vn -0.4723092 -0.3373382 0.8143261
vn -0.814326 -0.3373383 0.4723091
vn -0.9417419 -0.3363365 0
vn -0.4648459 0.3762747 0.8014584
vn -0.8014583 0.3762751 0.4648458
vn -0.9269467 0.3751931 0
vn 0.3336865 0.7467654 -0.5753215
vn 0.5753217 0.7467652 -0.3336866
vn 0.6663308 0.7456563 0
vn 0.4723091 0.3373383 -0.814326
vn 0.8143263 0.3373373 -0.4723093
vn 0.9417419 0.3363365 0
vn 0 -0.3363365 -0.9417419
vn -0.4723092 -0.3373382 -0.8143261
vn -0.814326 -0.3373383 -0.4723091
vn 0 0.3751931 -0.9269467
vn -0.4648459 0.3762747 -0.8014584
vn -0.8014583 0.3762751 -0.4648458
vn 0 0.7456563 0.6663308
vn 0.3336865 0.7467654 0.5753215
vn 0.5753217 0.7467652 0.3336866
vn 0 0.3363365 0.9417419
vn 0.4723091 0.3373383 0.814326
vn 0.8143263 0.3373373 0.4723093
vn 0.8143261 -0.3373382 -0.4723092
vn 0.4723091 -0.3373383 -0.814326
vn 0.8014584 0.3762747 -0.4648459
vn 0.4648458 0.3762751 -0.8014583
vn -0.5753215 0.7467654 0.3336865
vn -0.3336866 0.7467652 0.5753217
vn -0.814326 0.3373383 0.4723091
vn -0.4723093 0.3373373 0.8143263
vn -0.9517086 0.3070028 0
vn -0.8229967 0.3079364 -0.4773381
vn -0.477338 0.3079366 -0.8229966
vn 0 0.3070028 -0.9517086
vn -0.9782851 0.2072638 0
vn -0.8461248 0.2079299 -0.4907524
vn -0.4907524 0.20793 -0.8461248
vn 0 0.2072638 -0.9782851
vn -1 0 0
vn -0.8650312 0 -0.5017181
vn -0.5017181 0 -0.8650312
vn 0 0 -1
vn 0.4773381 0.3079364 -0.8229967
vn 0.8229966 0.3079366 -0.477338
vn 0.9517086 0.3070028 0
vn 0.4907524 0.2079299 -0.8461248
vn 0.8461248 0.20793 -0.4907524
vn 0.9782851 0.2072638 0
vn 0.5017181 0 -0.8650312
vn 0.8650312 0 -0.5017181
vn 1 0 0
vn 0 0.3070028 0.9517086
vn 0.4773381 0.3079364 0.8229967
vn 0.8229966 0.3079366 0.477338
vn 0 0.2072638 0.9782851
vn 0.4907524 0.2079299 0.8461248
vn 0.8461248 0.20793 0.4907524
vn 0 0 1
vn 0.5017181 0 0.8650312
vn 0.8650312 0 0.5017181
vn -0.8229967 0.3079364 0.4773381
vn -0.477338 0.3079366 0.8229966
vn -0.8461248 0.2079299 0.4907524
vn -0.4907524 0.20793 0.8461248
vn -0.8650312 0 0.5017181
vn -0.5017181 0 0.8650312
vn -0.8797066 -0.475517 0
vn -0.7603952 -0.4767518 -0.4410293
vn -0.4410293 -0.4767519 -0.7603952
vn 0 -0.475517 -0.8797066
vn -0.7399401 -0.6726727 0
vn -0.6390989 -0.6739071 -0.3706774
vn -0.3706774 -0.6739072 -0.6390988
vn 0 -0.6726727 -0.7399401
vn -1 0 0
vn -0.8650312 0 -0.5017182
vn -0.5017181 0 -0.8650312
vn 0 0 -1
vn 0.4410293 -0.4767518 -0.7603952
vn 0.7603952 -0.4767519 -0.4410293
vn 0.8797066 -0.475517 0
vn 0.3706774 -0.6739071 -0.6390989
vn 0.6390988 -0.6739072 -0.3706774
vn 0.7399401 -0.6726727 0
vn 0.5017182 0 -0.8650312
vn 0.8650312 0 -0.5017181
vn 1 0 0
vn 0 -0.475517 0.8797066
vn 0.4410293 -0.4767518 0.7603952
vn 0.7603952 -0.4767519 0.4410293
vn 0 -0.6726727 0.7399401
vn 0.3706774 -0.6739071 0.6390989
vn 0.6390988 -0.6739072 0.3706774
vn 0 0 1
vn 0.5017182 0 0.8650312
vn 0.8650312 0 0.5017181
vn -0.7603952 -0.4767518 0.4410293
vn -0.4410293 -0.4767519 0.7603952
vn -0.6390989 -0.6739071 0.3706774
vn -0.3706774 -0.6739072 0.6390988
vn -0.8650312 0 0.5017182
vn -0.5017181 0 0.8650312

vt 0.125 1
vt 0.1640625 1
vt 0.203125 1
vt 0.2421875 1
vt 0.125 0.8981482
vt 0.1640625 0.8968969
vt 0.203125 0.8938112
vt 0.2421875 0.8915344
vt 0.125 0.8201058
vt 0.1640625 0.818354
vt 0.203125 0.8140341
vt 0.2421875 0.8108466
vt 0.125 0.75
vt 0.1640625 0.75
vt 0.203125 0.75
vt 0.2421875 0.75
vt 0.0859375 1
vt 0.046875 1
vt 0.0078125 1
vt 0.0859375 0.8968969
vt 0.046875 0.8938112
vt 0.0078125 0.8915344
vt 0.0859375 0.818354
vt 0.046875 0.8140341
vt 0.0078125 0.8108466
vt 0.0859375 0.75
vt 0.046875 0.75
vt 0.0078125 0.75
vt 0.125 0.6818174
vt 0.1640625 0.6832684
vt 0.203125 0.6867255
vt 0.2421875 0.6891459
vt 0.125 0.6057006
vt 0.1640625 0.606074
vt 0.203125 0.6068425
vt 0.2421875 0.6073071
vt 0.125 0.5175
vt 0.1640625 0.5175
vt 0.203125 0.5175
vt 0.2421875 0.5175
vt 0.0859375 0.6832684
vt 0.046875 0.6867255
vt 0.0078125 0.6891459
vt 0.0859375 0.606074
vt 0.046875 0.6068425
vt 0.0078125 0.6073071
vt 0.0859375 0.5175
vt 0.046875 0.5175
vt 0.0078125 0.5175
vt 0.75 1
vt 0.7916667 1
vt 0.8333333 1
vt 0.875 1
vt 0.75 0.9743989
vt 0.7916667 0.9733532
vt 0.8333333 0.9722013
vt 0.875 0.9719115
vt 0.75 0.950601
vt 0.7916667 0.9505999
vt 0.8333333 0.9504889
vt 0.875 0.9503689
vt 0.75 0.925
vt 0.7916667 0.925
vt 0.8333333 0.925
vt 0.875 0.925
vt 1 1
vt 0.9583333 1
vt 0.9166667 1
vt 1 0.9743989
vt 0.9583333 0.9733532
vt 0.9166667 0.9722013
vt 1 0.950601
vt 0.9583333 0.9505999
vt 0.9166667 0.9504889
vt 1 0.925
vt 0.9583333 0.925
vt 0.9166667 0.925
vt 0.75 0.8094902
vt 0.7916667 0.8079446
vt 0.8333333 0.8056084
vt 0.875 0.8046172
vt 0.75 0.6667978
vt 0.7916667 0.6637566
vt 0.8333333 0.6608076
vt 0.875 0.6599013
vt 0.75 0.5132812
vt 0.7916667 0.5132812
vt 0.8333333 0.5132812
vt 0.875 0.5132812
vt 1 0.8094902
vt 0.9583333 0.8079446
vt 0.9166667 0.8056084
vt 1 0.6667978
vt 0.9583333 0.6637566
vt 0.9166667 0.6608076
vt 1 0.5132812
vt 0.9583333 0.5132812
vt 0.9166667 0.5132812
vt 0.375 0.75
vt 0.375 0.6545408
vt 0.3988767 0.6672888
vt 0.4163556 0.7022467
vt 0.4227296 0.75
vt 0.375 0.5702168
vt 0.4199572 0.5942639
vt 0.452868 0.6600857
vt 0.4648916 0.75
vt 0.375 0.515625
vt 0.4335938 0.5470253
vt 0.4764874 0.6328126
vt 0.4921875 0.75
vt 0.4163556 0.7977533
vt 0.3988767 0.8327112
vt 0.375 0.8454592
vt 0.452868 0.8399143
vt 0.4199571 0.9057361
vt 0.375 0.9297832
vt 0.4764873 0.8671875
vt 0.4335938 0.9529747
vt 0.375 0.984375
vt 0.3272704 0.75
vt 0.3336444 0.7977533
vt 0.3511233 0.8327112
vt 0.2851084 0.75
vt 0.297132 0.8399143
vt 0.3300429 0.9057361
vt 0.2578125 0.75
vt 0.2735127 0.8671875
vt 0.3164063 0.9529747
vt 0.3511233 0.6672888
vt 0.3336444 0.7022467
vt 0.3300428 0.5942639
vt 0.297132 0.6600857
vt 0.3164063 0.5470253
vt 0.2735126 0.6328126
vt 0.625 0.7139423
vt 0.6340144 0.7187731
vt 0.6406134 0.7319711
vt 0.6430289 0.75
vt 0.625 0.6508725
vt 0.6497821 0.6641524
vt 0.6679238 0.7004359
vt 0.6745638 0.75
vt 0.625 0.5707743
vt 0.6698126 0.5947647
vt 0.7026176 0.6603749
vt 0.7146128 0.75
vt 0.625 0.515625
vt 0.6835938 0.5470253
vt 0.7264873 0.6328126
vt 0.7421875 0.75
vt 0.6406134 0.7680289
vt 0.6340144 0.7812269
vt 0.625 0.7860577
vt 0.6679238 0.7995641
vt 0.6497821 0.8358476
vt 0.625 0.8491275
vt 0.7026176 0.8396251
vt 0.6698126 0.9052353
vt 0.625 0.9292257
vt 0.7264873 0.8671875
vt 0.6835938 0.9529747
vt 0.625 0.984375
vt 0.6069711 0.75
vt 0.6093866 0.7680289
vt 0.6159856 0.7812269
vt 0.5754362 0.75
vt 0.5820762 0.7995641
vt 0.6002179 0.8358476
vt 0.5353872 0.75
vt 0.5473824 0.8396251
vt 0.5801874 0.9052353
vt 0.5078125 0.75
vt 0.5235127 0.8671875
vt 0.5664063 0.9529747
vt 0.6159856 0.7187731
vt 0.6093866 0.7319711
vt 0.6002179 0.6641524
vt 0.5820762 0.7004359
vt 0.5801874 0.5947647
vt 0.5473824 0.6603749
vt 0.5664063 0.5470253
vt 0.5235127 0.6328126
vt 0 0.5
vt 0.08333334 0.5
vt 0.1666667 0.5
vt 0.25 0.5
vt 0 0.4854339
vt 0.08333334 0.4854362
vt 0.1666667 0.4854362
vt 0.25 0.4854339
vt 0 0.4725661
vt 0.08333334 0.4725638
vt 0.1666667 0.4725638
vt 0.25 0.4725661
vt 0 0.458
vt 0.08333334 0.458
vt 0.1666667 0.458
vt 0.25 0.458
vt 0.3333333 0.5
vt 0.4166667 0.5
vt 0.5 0.5
vt 0.3333333 0.4854362
vt 0.4166667 0.4854362
vt 0.5 0.4854339
vt 0.3333333 0.4725638
vt 0.4166667 0.4725638
vt 0.5 0.4725661
vt 0.3333333 0.458
vt 0.4166667 0.458
vt 0.5 0.458
vt 0.75 0.5
vt 0.6666666 0.5
vt 0.5833333 0.5
vt 0.75 0.4854339
vt 0.6666666 0.4854362
vt 0.5833333 0.4854362
vt 0.75 0.4725661
vt 0.6666666 0.4725638
vt 0.5833333 0.4725638
vt 0.75 0.458
vt 0.6666666 0.458
vt 0.5833333 0.458
vt 1 0.5
vt 0.9166667 0.5
vt 0.8333333 0.5
vt 1 0.4854339
vt 0.9166667 0.4854362
vt 0.8333333 0.4854362
vt 1 0.4725661
vt 0.9166667 0.4725638
vt 0.8333333 0.4725638
vt 1 0.458
vt 0.9166667 0.458
vt 0.8333333 0.458
vt 0 0.3911541
vt 0.08333334 0.3911475
vt 0.1666667 0.3911475
vt 0.25 0.3911541
vt 0 0.3271925
vt 0.08333334 0.3271843
vt 0.1666667 0.3271843
vt 0.25 0.3271925
vt 0 0.269
vt 0.08333334 0.269
vt 0.1666667 0.269
vt 0.25 0.269
vt 0.3333333 0.3911475
vt 0.4166667 0.3911475
vt 0.5 0.3911541
vt 0.3333333 0.3271843
vt 0.4166667 0.3271843
vt 0.5 0.3271925
vt 0.3333333 0.269
vt 0.4166667 0.269
vt 0.5 0.269
vt 0.75 0.3911541
vt 0.6666666 0.3911475
vt 0.5833333 0.3911475
vt 0.75 0.3271925
vt 0.6666666 0.3271843
vt 0.5833333 0.3271843
vt 0.75 0.269
vt 0.6666666 0.269
vt 0.5833333 0.269
vt 1 0.3911541
vt 0.9166667 0.3911475
vt 0.8333333 0.3911475
vt 1 0.3271925
vt 0.9166667 0.3271843
vt 0.8333333 0.3271843
vt 1 0.269
vt 0.9166667 0.269
vt 0.8333333 0.269
vt 0 0.2154772
vt 0.08333334 0.2155028
vt 0.1666667 0.2155028
vt 0.25 0.2154772
vt 0 0.1726079
vt 0.08333334 0.1726172
vt 0.1666667 0.1726172
vt 0.25 0.1726079
vt 0 0.15
vt 0.08333334 0.15
vt 0.1666667 0.15
vt 0.25 0.15
vt 0.3333333 0.2155028
vt 0.4166667 0.2155028
vt 0.5 0.2154772
vt 0.3333333 0.1726172
vt 0.4166667 0.1726172
vt 0.5 0.1726079
vt 0.3333333 0.15
vt 0.4166667 0.15
vt 0.5 0.15
vt 0.75 0.2154772
vt 0.6666666 0.2155028
vt 0.5833333 0.2155028
vt 0.75 0.1726079
vt 0.6666666 0.1726172
vt 0.5833333 0.1726172
vt 0.75 0.15
vt 0.6666666 0.15
vt 0.5833333 0.15
vt 1 0.2154772
vt 0.9166667 0.2155028
vt 0.8333333 0.2155028
vt 1 0.1726079
vt 0.9166667 0.1726172
vt 0.8333333 0.1726172
vt 1 0.15
vt 0.9166667 0.15
vt 0.8333333 0.15

f 2/2/2 5/5/5 1/1/1
f 5/5/5 2/2/2 6/6/6
f 3/3/3 6/6/6 2/2/2
f 6/6/6 3/3/3 7/7/7
f 4/4/4 7/7/7 3/3/3
f 7/7/7 4/4/4 8/8/8
f 6/6/6 9/9/9 5/5/5
f 9/9/9 6/6/6 10/10/10
f 7/7/7 10/10/10 6/6/6
f 10/10/10 7/7/7 11/11/11
f 8/8/8 11/11/11 7/7/7
f 11/11/11 8/8/8 12/12/12
f 10/10/10 13/13/13 9/9/9
f 13/13/13 10/10/10 14/14/14
f 11/11/11 14/14/14 10/10/10
f 14/14/14 11/11/11 15/15/15
f 12/12/12 15/15/15 11/11/11
f 15/15/15 12/12/12 16/16/16
f 5/5/5 17/17/17 1/1/1
f 17/17/17 5/5/5 19/20/19
f 19/20/19 18/18/18 17/17/17
f 18/18/18 19/20/19 20/21/20
f 20/21/20 4/19/4 18/18/18
f 4/19/4 20/21/20 8/22/8
f 9/9/9 19/20/19 5/5/5
f 19/20/19 9/9/9 21/23/21
f 21/23/21 20/21/20 19/20/19
f 20/21/20 21/23/21 22/24/22
f 22/24/22 8/22/8 20/21/20
f 8/22/8 22/24/22 12/25/12
f 13/13/13 21/23/21 9/9/9
f 21/23/21 13/13/13 23/26/23
f 23/26/23 22/24/22 21/23/21
f 22/24/22 23/26/23 24/27/24
f 24/27/24 12/25/12 22/24/22
f 12/25/12 24/27/24 16/28/16
f 14/14/14 25/29/25 13/13/13
f 25/29/25 14/14/14 26/30/26
f 15/15/15 26/30/26 14/14/14
f 26/30/26 15/15/15 27/31/27
f 16/16/16 27/31/27 15/15/15
f 27/31/27 16/16/16 28/32/28
f 26/30/26 29/33/29 25/29/25
f 29/33/29 26/30/26 30/34/30
f 27/31/27 30/34/30 26/30/26
f 30/34/30 27/31/27 31/35/31
f 28/32/28 31/35/31 27/31/27
f 31/35/31 28/32/28 32/36/32
f 30/34/30 33/37/33 29/33/29
f 33/37/33 30/34/30 34/38/34
f 31/35/31 34/38/34 30/34/30
f 34/38/34 31/35/31 35/39/35
f 32/36/32 35/39/35 31/35/31
f 35/39/35 32/36/32 36/40/36
f 25/29/25 23/26/23 13/13/13
f 23/26/23 25/29/25 37/41/37
f 37/41/37 24/27/24 23/26/23
f 24/27/24 37/41/37 38/42/38
f 38/42/38 16/28/16 24/27/24
f 16/28/16 38/42/38 28/43/28
f 29/33/29 37/41/37 25/29/25
f 37/41/37 29/33/29 39/44/39
f 39/44/39 38/42/38 37/41/37
f 38/42/38 39/44/39 40/45/40
f 40/45/40 28/43/28 38/42/38
f 28/43/28 40/45/40 32/46/32
f 33/37/33 39/44/39 29/33/29
f 39/44/39 33/37/33 41/47/41
f 41/47/41 40/45/40 39/44/39
f 40/45/40 41/47/41 42/48/42
f 42/48/42 32/46/32 40/45/40
f 32/46/32 42/48/42 36/49/36
f 44/51/44 47/54/47 43/50/43
f 47/54/47 44/51/44 48/55/48
f 45/52/45 48/55/48 44/51/44
f 48/55/48 45/52/45 49/56/49
f 46/53/46 49/56/49 45/52/45
f 49/56/49 46/53/46 50/57/50
f 48/55/48 51/58/51 47/54/47
f 51/58/51 48/55/48 52/59/52
f 49/56/49 52/59/52 48/55/48
f 52/59/52 49/56/49 53/60/53
f 50/57/50 53/60/53 49/56/49
f 53/60/53 50/57/50 54/61/54
f 52/59/52 55/62/55 51/58/51
f 55/62/55 52/59/52 56/63/56
f 53/60/53 56/63/56 52/59/52
f 56/63/56 53/60/53 57/64/57
f 54/61/54 57/64/57 53/60/53
f 57/64/57 54/61/54 58/65/58
f 47/69/47 59/67/59 43/66/43
f 59/67/59 47/69/47 61/70/61
f 61/70/61 60/68/60 59/67/59
f 60/68/60 61/70/61 62/71/62
f 62/71/62 46/53/46 60/68/60
f 46/53/46 62/71/62 50/57/50
f 51/72/51 61/70/61 47/69/47
f 61/70/61 51/72/51 63/73/63
f 63/73/63 62/71/62 61/70/61
f 62/71/62 63/73/63 64/74/64
f 64/74/64 50/57/50 62/71/62
f 50/57/50 64/74/64 54/61/54
f 55/75/55 63/73/63 51/72/51
f 63/73/63 55/75/55 65/76/65
f 65/76/65 64/74/64 63/73/63
f 64/74/64 65/76/65 66/77/66
f 66/77/66 54/61/54 64/74/64
f 54/61/54 66/77/66 58/65/58
f 56/63/56 67/78/67 55/62/55
f 67/78/67 56/63/56 68/79/68
f 57/64/57 68/79/68 56/63/56
f 68/79/68 57/64/57 69/80/69
f 58/65/58 69/80/69 57/64/57
f 69/80/69 58/65/58 70/81/70
f 68/79/68 71/82/71 67/78/67
f 71/82/71 68/79/68 72/83/72
f 69/80/69 72/83/72 68/79/68
f 72/83/72 69/80/69 73/84/73
f 70/81/70 73/84/73 69/80/69
f 73/84/73 70/81/70 74/85/74
f 72/83/72 75/86/75 71/82/71
f 75/86/75 72/83/72 76/87/76
f 73/84/73 76/87/76 72/83/72
f 76/87/76 73/84/73 77/88/77
f 74/85/74 77/88/77 73/84/73
f 77/88/77 74/85/74 78/89/78
f 67/90/67 65/76/65 55/75/55
f 65/76/65 67/90/67 79/91/79
f 79/91/79 66/77/66 65/76/65
f 66/77/66 79/91/79 80/92/80
f 80/92/80 58/65/58 66/77/66
f 58/65/58 80/92/80 70/81/70
f 71/93/71 79/91/79 67/90/67
f 79/91/79 71/93/71 81/94/81
f 81/94/81 80/92/80 79/91/79
f 80/92/80 81/94/81 82/95/82
f 82/95/82 70/81/70 80/92/80
f 70/81/70 82/95/82 74/85/74
f 75/96/75 81/94/81 71/93/71
f 81/94/81 75/96/75 83/97/83
f 83/97/83 82/95/82 81/94/81
f 82/95/82 83/97/83 84/98/84
f 84/98/84 74/85/74 82/95/82
f 74/85/74 84/98/84 78/89/78
f 85/99/85 87/101/87 86/100/86
f 85/99/85 88/102/88 87/101/87
f 85/99/85 89/103/89 88/102/88
f 87/101/87 90/104/90 86/100/86
f 90/104/90 87/101/87 91/105/91
f 88/102/88 91/105/91 87/101/87
f 91/105/91 88/102/88 92/106/92
f 89/103/89 92/106/92 88/102/88
f 92/106/92 89/103/89 93/107/93
f 91/105/91 94/108/94 90/104/90
f 94/108/94 91/105/91 95/109/95
f 92/106/92 95/109/95 91/105/91
f 95/109/95 92/106/92 96/110/96
f 93/107/93 96/110/96 92/106/92
f 96/110/96 93/107/93 97/111/97
f 85/99/85 98/112/98 89/103/89
f 85/99/85 99/113/99 98/112/98
f 85/99/85 100/114/100 99/113/99
f 98/112/98 93/107/93 89/103/89
f 93/107/93 98/112/98 101/115/101
f 99/113/99 101/115/101 98/112/98
f 101/115/101 99/113/99 102/116/102
f 100/114/100 102/116/102 99/113/99
f 102/116/102 100/114/100 103/117/103
f 101/115/101 97/111/97 93/107/93
f 97/111/97 101/115/101 104/118/104
f 102/116/102 104/118/104 101/115/101
f 104/118/104 102/116/102 105/119/105
f 103/117/103 105/119/105 102/116/102
f 105/119/105 103/117/103 106/120/106
f 107/121/107 108/122/108 85/99/85
f 108/122/108 109/123/109 85/99/85
f 109/123/109 100/114/100 85/99/85
f 110/124/110 108/122/108 107/121/107
f 108/122/108 110/124/110 111/125/111
f 111/125/111 109/123/109 108/122/108
f 109/123/109 111/125/111 112/126/112
f 112/126/112 100/114/100 109/123/109
f 100/114/100 112/126/112 103/117/103
f 113/127/113 111/125/111 110/124/110
f 111/125/111 113/127/113 114/128/114
f 114/128/114 112/126/112 111/125/111
f 112/126/112 114/128/114 115/129/115
f 115/129/115 103/117/103 112/126/112
f 103/117/103 115/129/115 106/120/106
f 86/100/86 116/130/116 85/99/85
f 116/130/116 117/131/117 85/99/85
f 117/131/117 107/121/107 85/99/85
f 90/104/90 116/130/116 86/100/86
f 116/130/116 90/104/90 118/132/118
f 118/132/118 117/131/117 116/130/116
f 117/131/117 118/132/118 119/133/119
f 119/133/119 107/121/107 117/131/117
f 107/121/107 119/133/119 110/124/110
f 94/108/94 118/132/118 90/104/90
f 118/132/118 94/108/94 120/134/120
f 120/134/120 119/133/119 118/132/118
f 119/133/119 120/134/120 121/135/121
f 121/135/121 110/124/110 119/133/119
f 110/124/110 121/135/121 113/127/113
f 95/137/95 122/140/122 94/136/94
f 122/140/122 95/137/95 123/141/123
f 96/138/96 123/141/123 95/137/95
f 123/141/123 96/138/96 124/142/124
f 97/139/97 124/142/124 96/138/96
f 124/142/124 97/139/97 125/143/125
f 123/141/123 126/144/126 122/140/122
f 126/144/126 123/141/123 127/145/127
f 124/142/124 127/145/127 123/141/123
f 127/145/127 124/142/124 128/146/128
f 125/143/125 128/146/128 124/142/124
f 128/146/128 125/143/125 129/147/129
f 127/145/127 130/148/130 126/144/126
f 130/148/130 127/145/127 131/149/131
f 128/146/128 131/149/131 127/145/127
f 131/149/131 128/146/128 132/150/132
f 129/147/129 132/150/132 128/146/128
f 132/150/132 129/147/129 133/151/133
f 104/152/104 125/143/125 97/139/97
f 125/143/125 104/152/104 134/155/134
f 105/153/105 134/155/134 104/152/104
f 134/155/134 105/153/105 135/156/135
f 106/154/106 135/156/135 105/153/105
f 135/156/135 106/154/106 136/157/136
f 134/155/134 129/147/129 125/143/125
f 129/147/129 134/155/134 137/158/137
f 135/156/135 137/158/137 134/155/134
f 137/158/137 135/156/135 138/159/138
f 136/157/136 138/159/138 135/156/135
f 138/159/138 136/157/136 139/160/139
f 137/158/137 133/151/133 129/147/129
f 133/151/133 137/158/137 140/161/140
f 138/159/138 140/161/140 137/158/137
f 140/161/140 138/159/138 141/162/141
f 139/160/139 141/162/141 138/159/138
f 141/162/141 139/160/139 142/163/142
f 143/167/143 114/165/114 113/164/113
f 114/165/114 143/167/143 144/168/144
f 144/168/144 115/166/115 114/165/114
f 115/166/115 144/168/144 145/169/145
f 145/169/145 106/154/106 115/166/115
f 106/154/106 145/169/145 136/157/136
f 146/170/146 144/168/144 143/167/143
f 144/168/144 146/170/146 147/171/147
f 147/171/147 145/169/145 144/168/144
f 145/169/145 147/171/147 148/172/148
f 148/172/148 136/157/136 145/169/145
f 136/157/136 148/172/148 139/160/139
f 149/173/149 147/171/147 146/170/146
f 147/171/147 149/173/149 150/174/150
f 150/174/150 148/172/148 147/171/147
f 148/172/148 150/174/150 151/175/151
f 151/175/151 139/160/139 148/172/148
f 139/160/139 151/175/151 142/163/142
f 122/140/122 120/176/120 94/136/94
f 120/176/120 122/140/122 152/178/152
f 152/178/152 121/177/121 120/176/120
f 121/177/121 152/178/152 153/179/153
f 153/179/153 113/164/113 121/177/121
f 113/164/113 153/179/153 143/167/143
f 126/144/126 152/178/152 122/140/122
f 152/178/152 126/144/126 154/180/154
f 154/180/154 153/179/153 152/178/152
f 153/179/153 154/180/154 155/181/155
f 155/181/155 143/167/143 153/179/153
f 143/167/143 155/181/155 146/170/146
f 130/148/130 154/180/154 126/144/126
f 154/180/154 130/148/130 156/182/156
f 156/182/156 155/181/155 154/180/154
f 155/181/155 156/182/156 157/183/157
f 157/183/157 146/170/146 155/181/155
f 146/170/146 157/183/157 149/173/149
f 159/185/159 162/188/162 158/184/158
f 162/188/162 159/185/159 163/189/163
f 160/186/160 163/189/163 159/185/159
f 163/189/163 160/186/160 164/190/164
f 161/187/161 164/190/164 160/186/160
f 164/190/164 161/187/161 165/191/165
f 163/189/163 166/192/166 162/188/162
f 166/192/166 163/189/163 167/193/167
f 164/190/164 167/193/167 163/189/163
f 167/193/167 164/190/164 168/194/168
f 165/191/165 168/194/168 164/190/164
f 168/194/168 165/191/165 169/195/169
f 167/193/167 170/196/170 166/192/166
f 170/196/170 167/193/167 171/197/171
f 168/194/168 171/197/171 167/193/167
f 171/197/171 168/194/168 172/198/172
f 169/195/169 172/198/172 168/194/168
f 172/198/172 169/195/169 173/199/173
f 174/200/174 165/191/165 161/187/161
f 165/191/165 174/200/174 177/203/177
f 175/201/175 177/203/177 174/200/174
f 177/203/177 175/201/175 178/204/178
f 176/202/176 178/204/178 175/201/175
f 178/204/178 176/202/176 179/205/179
f 177/203/177 169/195/169 165/191/165
f 169/195/169 177/203/177 180/206/180
f 178/204/178 180/206/180 177/203/177
f 180/206/180 178/204/178 181/207/181
f 179/205/179 181/207/181 178/204/178
f 181/207/181 179/205/179 182/208/182
f 180/206/180 173/199/173 169/195/169
f 173/199/173 180/206/180 183/209/183
f 181/207/181 183/209/183 180/206/180
f 183/209/183 181/207/181 184/210/184
f 182/208/182 184/210/184 181/207/181
f 184/210/184 182/208/182 185/211/185
f 189/215/189 187/213/187 186/212/186
f 187/213/187 189/215/189 190/216/190
f 190/216/190 188/214/188 187/213/187
f 188/214/188 190/216/190 191/217/191
f 191/217/191 176/202/176 188/214/188
f 176/202/176 191/217/191 179/205/179
f 192/218/192 190/216/190 189/215/189
f 190/216/190 192/218/192 193/219/193
f 193/219/193 191/217/191 190/216/190
f 191/217/191 193/219/193 194/220/194
f 194/220/194 179/205/179 191/217/191
f 179/205/179 194/220/194 182/208/182
f 195/221/195 193/219/193 192/218/192
f 193/219/193 195/221/195 196/222/196
f 196/222/196 194/220/194 193/219/193
f 194/220/194 196/222/196 197/223/197
f 197/223/197 182/208/182 194/220/194
f 182/208/182 197/223/197 185/211/185
f 162/227/162 198/225/198 158/224/158
f 198/225/198 162/227/162 200/228/200
f 200/228/200 199/226/199 198/225/198
f 199/226/199 200/228/200 201/229/201
f 201/229/201 186/212/186 199/226/199
f 186/212/186 201/229/201 189/215/189
f 166/230/166 200/228/200 162/227/162
f 200/228/200 166/230/166 202/231/202
f 202/231/202 201/229/201 200/228/200
f 201/229/201 202/231/202 203/232/203
f 203/232/203 189/215/189 201/229/201
f 189/215/189 203/232/203 192/218/192
f 170/233/170 202/231/202 166/230/166
f 202/231/202 170/233/170 204/234/204
f 204/234/204 203/232/203 202/231/202
f 203/232/203 204/234/204 205/235/205
f 205/235/205 192/218/192 203/232/203
f 192/218/192 205/235/205 195/221/195
f 171/197/171 206/236/206 170/196/170
f 206/236/206 171/197/171 207/237/207
f 172/198/172 207/237/207 171/197/171
f 207/237/207 172/198/172 208/238/208
f 173/199/173 208/238/208 172/198/172
f 208/238/208 173/199/173 209/239/209
f 207/237/207 210/240/210 206/236/206
f 210/240/210 207/237/207 211/241/211
f 208/238/208 211/241/211 207/237/207
f 211/241/211 208/238/208 212/242/212
f 209/239/209 212/242/212 208/238/208
f 212/242/212 209/239/209 213/243/213
f 211/241/211 214/244/214 210/240/210
f 214/244/214 211/241/211 215/245/215
f 212/242/212 215/245/215 211/241/211
f 215/245/215 212/242/212 216/246/216
f 213/243/213 216/246/216 212/242/212
f 216/246/216 213/243/213 217/247/217
f 183/209/183 209/239/209 173/199/173
f 209/239/209 183/209/183 218/248/218
f 184/210/184 218/248/218 183/209/183
f 218/248/218 184/210/184 219/249/219
f 185/211/185 219/249/219 184/210/184
f 219/249/219 185/211/185 220/250/220
f 218/248/218 213/243/213 209/239/209
f 213/243/213 218/248/218 221/251/221
f 219/249/219 221/251/221 218/248/218
f 221/251/221 219/249/219 222/252/222
f 220/250/220 222/252/222 219/249/219
f 222/252/222 220/250/220 223/253/223
f 221/251/221 217/247/217 213/243/213
f 217/247/217 221/251/221 224/254/224
f 222/252/222 224/254/224 221/251/221
f 224/254/224 222/252/222 225/255/225
f 223/253/223 225/255/225 222/252/222
f 225/255/225 223/253/223 226/256/226
f 227/257/227 196/222/196 195/221/195
f 196/222/196 227/257/227 228/258/228
f 228/258/228 197/223/197 196/222/196
f 197/223/197 228/258/228 229/259/229
f 229/259/229 185/211/185 197/223/197
f 185/211/185 229/259/229 220/250/220
f 230/260/230 228/258/228 227/257/227
f 228/258/228 230/260/230 231/261/231
f 231/261/231 229/259/229 228/258/228
f 229/259/229 231/261/231 232/262/232
f 232/262/232 220/250/220 229/259/229
f 220/250/220 232/262/232 223/253/223
f 233/263/233 231/261/231 230/260/230
f 231/261/231 233/263/233 234/264/234
f 234/264/234 232/262/232 231/261/231
f 232/262/232 234/264/234 235/265/235
f 235/265/235 223/253/223 232/262/232
f 223/253/223 235/265/235 226/256/226
f 206/266/206 204/234/204 170/233/170
f 204/234/204 206/266/206 236/267/236
f 236/267/236 205/235/205 204/234/204
f 205/235/205 236/267/236 237/268/237
f 237/268/237 195/221/195 205/235/205
f 195/221/195 237/268/237 227/257/227
f 210/269/210 236/267/236 206/266/206
f 236/267/236 210/269/210 238/270/238
f 238/270/238 237/268/237 236/267/236
f 237/268/237 238/270/238 239/271/239
f 239/271/239 227/257/227 237/268/237
f 227/257/227 239/271/239 230/260/230
f 214/272/214 238/270/238 210/269/210
f 238/270/238 214/272/214 240/273/240
f 240/273/240 239/271/239 238/270/238
f 239/271/239 240/273/240 241/274/241
f 241/274/241 230/260/230 239/271/239
f 230/260/230 241/274/241 233/263/233
f 215/245/215 242/275/242 214/244/214
f 242/275/242 215/245/215 243/276/243
f 216/246/216 243/276/243 215/245/215
f 243/276/243 216/246/216 244/277/244
f 217/247/217 244/277/244 216/246/216
f 244/277/244 217/247/217 245/278/245
f 243/276/243 246/279/246 242/275/242
f 246/279/246 243/276/243 247/280/247
f 244/277/244 247/280/247 243/276/243
f 247/280/247 244/277/244 248/281/248
f 245/278/245 248/281/248 244/277/244
f 248/281/248 245/278/245 249/282/249
f 247/280/247 250/283/250 246/279/246
f 250/283/250 247/280/247 251/284/251
f 248/281/248 251/284/251 247/280/247
f 251/284/251 248/281/248 252/285/252
f 249/282/249 252/285/252 248/281/248
f 252/285/252 249/282/249 253/286/253
f 224/254/224 245/278/245 217/247/217
f 245/278/245 224/254/224 254/287/254
f 225/255/225 254/287/254 224/254/224
f 254/287/254 225/255/225 255/288/255
f 226/256/226 255/288/255 225/255/225
f 255/288/255 226/256/226 256/289/256
f 254/287/254 249/282/249 245/278/245
f 249/282/249 254/287/254 257/290/257
f 255/288/255 257/290/257 254/287/254
f 257/290/257 255/288/255 258/291/258
f 256/289/256 258/291/258 255/288/255
f 258/291/258 256/289/256 259/292/259
f 257/290/257 253/286/253 249/282/249
f 253/286/253 257/290/257 260/293/260
f 258/291/258 260/293/260 257/290/257
f 260/293/260 258/291/258 261/294/261
f 259/292/259 261/294/261 258/291/258
f 261/294/261 259/292/259 262/295/262
f 263/296/263 234/264/234 233/263/233
f 234/264/234 263/296/263 264/297/264
f 264/297/264 235/265/235 234/264/234
f 235/265/235 264/297/264 265/298/265
f 265/298/265 226/256/226 235/265/235
f 226/256/226 265/298/265 256/289/256
f 266/299/266 264/297/264 263/296/263
f 264/297/264 266/299/266 267/300/267
f 267/300/267 265/298/265 264/297/264
f 265/298/265 267/300/267 268/301/268
f 268/301/268 256/289/256 265/298/265
f 256/289/256 268/301/268 259/292/259
f 269/302/269 267/300/267 266/299/266
f 267/300/267 269/302/269 270/303/270
f 270/303/270 268/301/268 267/300/267
f 268/301/268 270/303/270 271/304/271
f 271/304/271 259/292/259 268/301/268
f 259/292/259 271/304/271 262/295/262
f 242/305/242 240/273/240 214/272/214
f 240/273/240 242/305/242 272/306/272
f 272/306/272 241/274/241 240/273/240
f 241/274/241 272/306/272 273/307/273
f 273/307/273 233/263/233 241/274/241
f 233/263/233 273/307/273 263/296/263
f 246/308/246 272/306/272 242/305/242
f 272/306/272 246/308/246 274/309/274
f 274/309/274 273/307/273 272/306/272
f 273/307/273 274/309/274 275/310/275
f 275/310/275 263/296/263 273/307/273
f 263/296/263 275/310/275 266/299/266
f 250/311/250 274/309/274 246/308/246
f 274/309/274 250/311/250 276/312/276
f 276/312/276 275/310/275 274/309/274
f 275/310/275 276/312/276 277/313/277
f 277/313/277 266/299/266 275/310/275
f 266/299/266 277/313/277 269/302/269
